<?xml version="1.0" encoding="UTF-8" standalone="no"?>
<!-- Created with Inkscape (http://www.inkscape.org/) -->

<svg
   width="210mm"
   height="297mm"
   viewBox="0 0 210 297"
   version="1.1"
   id="svg1"
   inkscape:version="1.3 (0e150ed6c4, 2023-07-21)"
   sodipodi:docname="fondo.svg"
   xmlns:inkscape="http://www.inkscape.org/namespaces/inkscape"
   xmlns:sodipodi="http://sodipodi.sourceforge.net/DTD/sodipodi-0.dtd"
   xmlns="http://www.w3.org/2000/svg"
   xmlns:svg="http://www.w3.org/2000/svg">
  <sodipodi:namedview
     id="namedview1"
     pagecolor="#ffffff"
     bordercolor="#000000"
     borderopacity="0.25"
     inkscape:showpageshadow="2"
     inkscape:pageopacity="0.0"
     inkscape:pagecheckerboard="0"
     inkscape:deskcolor="#d1d1d1"
     inkscape:document-units="mm"
     inkscape:zoom="0.5007929"
     inkscape:cx="-58.906586"
     inkscape:cy="620.01677"
     inkscape:window-width="1920"
     inkscape:window-height="991"
     inkscape:window-x="-9"
     inkscape:window-y="-9"
     inkscape:window-maximized="1"
     inkscape:current-layer="layer1" />
  <defs
     id="defs1" />
  <g
     inkscape:label="Capa 1"
     inkscape:groupmode="layer"
     id="layer1">
    <path
       style="fill:#fff600;stroke-width:2;stroke-linecap:round;stroke-linejoin:round;paint-order:markers stroke fill;fill-opacity:1"
       d="m 208.08679,51.181132 c 0,0 -27.64528,-0.373587 -24.6566,8.592452 2.98868,8.966038 -11.58113,9.339622 -15.69057,18.679244 -4.10943,9.339622 -15.69057,5.603775 -17.93208,23.162262 -2.2415,17.55849 -19.79999,24.65661 -18.30565,34.7434 1.49433,10.08679 -8.21887,2.61509 -9.33963,28.01887 -1.12075,25.40377 3.73585,22.04151 5.23019,14.19622 1.49434,-7.84528 -1.49434,-12.3283 4.8566,-21.66792 6.35095,-9.33962 0.37359,-6.35095 10.0868,-19.42642 9.7132,-13.07547 1.86792,-16.81132 8.21886,-25.40377 6.35095,-8.59245 -1.86792,-12.328301 9.33963,-17.184905 11.20755,-4.856604 7.84528,0.74717 14.94339,-10.833962 7.09812,-11.581133 8.21887,-16.064151 14.19623,-18.305661 5.97736,-2.241508 2.98868,-10.833963 14.19623,-6.350942 11.20754,4.483018 12.70188,-2.615094 12.70188,-2.615094 z"
       id="path1" />
    <path
       style="fill:#0381bc;fill-opacity:1;stroke-width:2;stroke-linecap:round;stroke-linejoin:round;paint-order:markers stroke fill"
       d="m 210.70188,57.345283 c 0,0 -11.95471,-7.098115 -16.25094,-2.428304 -4.29623,4.669812 -6.35094,2.054718 -8.03207,10.273586 -1.68114,8.218868 -7.6585,0.373586 -12.5151,10.460379 -4.8566,10.086792 -4.10943,12.515093 -10.27358,14.196224 -6.16415,1.681133 -14.19623,15.316982 -15.87736,23.722642 -1.68113,8.40566 -5.79057,22.41509 -11.02076,26.15094 -5.23018,3.73585 -14.00943,24.28302 -12.1415,42.58868 1.86792,18.30566 1.68113,26.89811 5.60377,22.97547 3.92264,-3.92264 -0.93396,-4.8566 2.80188,-19.42641 3.73585,-14.56981 -6.35094,-16.43774 3.92264,-26.33774 10.27359,-9.9 12.5151,-22.97547 15.50378,-35.49056 2.98868,-12.5151 4.48302,-8.40566 14.00943,-20.54717 9.52642,-12.141512 17.18491,-12.328303 18.49246,-22.415095 1.30754,-10.086795 1.49434,-14.009436 6.16415,-14.943397 4.66981,-0.933963 9.71321,-6.911321 12.3283,-4.109434 2.61509,2.801887 2.4283,10.086792 6.72453,5.043395 4.29622,-5.043395 1.49434,-9.713206 1.49434,-9.713206 z"
       id="path2" />
    <path
       style="fill:#ff0006;fill-opacity:1;stroke-width:2;stroke-linecap:round;stroke-linejoin:round;paint-order:markers stroke fill"
       d="m 211.44905,63.509434 c 0,0 -4.48302,-8.592455 -11.02075,-6.537737 -6.53774,2.054717 -6.53774,3.549057 -9.71321,6.537737 -3.17547,2.988678 -8.21887,8.218866 -9.15283,11.39434 -0.93396,3.17547 -1.49434,7.098111 -5.41698,11.394339 -3.92264,4.296225 -12.51509,10.273583 -16.81132,15.503777 -4.29622,5.23018 -8.77925,12.51509 -10.64717,18.49245 -1.86792,5.97736 -3.92264,19.8 -8.03207,25.21698 -4.10944,5.41698 -8.96604,11.20755 -10.0868,17.1849 -1.12075,5.97736 -2.61509,9.15284 -1.68113,19.8 0.93396,10.64717 3.17547,17.74529 7.09811,13.07547 3.92265,-4.66981 1.86793,-8.77924 1.68114,-11.20754 -0.1868,-2.4283 -3.73585,-10.08679 0.93396,-17.74529 4.66981,-7.65848 9.71321,-10.64716 15.31698,-24.4698 5.60377,-13.82265 1.68113,-19.23963 11.95471,-25.40378 10.27359,-6.16415 12.70189,-16.81132 20.54718,-22.601885 7.84528,-5.790565 5.04339,-22.415095 14.19622,-20.547168 9.15283,1.867923 14.19623,0.18679 13.26227,-4.483021 -0.93397,-4.669811 -2.42831,-5.603772 -2.42831,-5.603772 z"
       id="path3" />
    <text
       xml:space="preserve"
       style="font-size:30.7395px;line-height:1;font-family:'Gill Sans MT Ext Condensed Bold';-inkscape-font-specification:'Gill Sans MT Ext Condensed Bold, ';text-align:center;text-anchor:middle;fill:#000000;fill-opacity:1;stroke-width:5.80906;stroke-linecap:round;stroke-linejoin:round;paint-order:markers stroke fill"
       id="text3"
       y="88.856514"
       x="190.28752"
       transform="rotate(31.052009)"><tspan
         sodipodi:role="line"
         id="tspan3"
         style="fill:#000000;fill-opacity:1;stroke-width:5.80906"
         x="190.28752"
         y="88.856514">A</tspan></text>
    <text
       xml:space="preserve"
       style="font-size:30.7395px;line-height:1;font-family:'Gill Sans MT Ext Condensed Bold';-inkscape-font-specification:'Gill Sans MT Ext Condensed Bold, ';text-align:center;text-anchor:middle;fill:#000000;fill-opacity:1;stroke-width:5.80906;stroke-linecap:round;stroke-linejoin:round;paint-order:markers stroke fill"
       id="text4"
       y="155.52267"
       x="127.08909"
       transform="rotate(-7.2854596)"><tspan
         sodipodi:role="line"
         id="tspan4"
         style="fill:#000000;fill-opacity:1;stroke-width:5.80906"
         x="127.08909"
         y="155.52267">R</tspan></text>
    <text
       xml:space="preserve"
       style="font-size:30.7395px;line-height:1;font-family:'Gill Sans MT Ext Condensed Bold';-inkscape-font-specification:'Gill Sans MT Ext Condensed Bold, ';text-align:center;text-anchor:middle;fill:#000000;fill-opacity:1;stroke-width:5.80906;stroke-linecap:round;stroke-linejoin:round;paint-order:markers stroke fill"
       id="text5"
       y="189.66248"
       x="58.859993"
       transform="rotate(-38.947882)"><tspan
         sodipodi:role="line"
         id="tspan5"
         style="fill:#000000;fill-opacity:1;stroke-width:5.80906"
         x="58.859993"
         y="189.66248">T</tspan></text>
    <text
       xml:space="preserve"
       style="font-size:30.7395px;line-height:1;font-family:'Gill Sans MT Ext Condensed Bold';-inkscape-font-specification:'Gill Sans MT Ext Condensed Bold, ';text-align:center;text-anchor:middle;fill:#000000;fill-opacity:1;stroke-width:5.80906;stroke-linecap:round;stroke-linejoin:round;paint-order:markers stroke fill"
       id="text6"
       y="206.17154"
       x="-22.225307"
       transform="rotate(-74.381328)"><tspan
         sodipodi:role="line"
         id="tspan6"
         style="fill:#000000;fill-opacity:1;stroke-width:5.80906"
         x="-22.225307"
         y="206.17154">E</tspan></text>
    <path
       style="fill:#0381bc;fill-opacity:1;stroke:none;stroke-width:2;stroke-linecap:round;stroke-linejoin:round;stroke-opacity:1;paint-order:markers stroke fill"
       d="m 131.0349,156.20519 c 0,0 -3.50235,3.17547 -4.52971,6.63113 -1.02736,3.45566 -1.82123,2.5217 -2.42831,5.0434 -0.60707,2.52169 1.35425,5.41698 1.35425,5.41698 z"
       id="path6" />
    <path
       style="fill:#0381bc;fill-opacity:1;stroke:none;stroke-width:2;stroke-linecap:round;stroke-linejoin:round;stroke-opacity:1;paint-order:markers stroke fill"
       d="m 144.27382,130.54457 c 0,0 -0.53703,2.14812 -1.65778,3.47901 -1.12076,1.3309 -0.67713,0.25684 -1.65779,2.73184 -0.98066,2.475 -1.2375,3.7592 -1.2375,3.7592 l 0.28019,0.58373 c 0,0 0.23349,-0.56038 1.07406,-1.21415 0.84056,-0.65378 0.72382,-1.40095 1.49434,-2.28821 0.77052,-0.88727 1.44764,-0.98066 1.84457,-1.77453 0.39694,-0.79387 0.49033,-2.61509 0.49033,-2.61509 0,0 0,-1.4243 0.1401,-1.77453 0.14009,-0.35024 -0.77052,-0.88727 -0.77052,-0.88727 z"
       id="path7" />
    <path
       style="fill:#0381bc;fill-opacity:1;stroke:none;stroke-width:2;stroke-linecap:round;stroke-linejoin:round;stroke-opacity:1;paint-order:markers stroke fill"
       d="m 147.89292,117.21226 c 0,0 -0.81721,0.25684 -1.35424,1.96132 -0.53703,1.70448 -0.0701,1.2842 -0.53703,2.5684 -0.46698,1.2842 -0.88726,2.35825 -0.0233,1.79788 0.86392,-0.56038 1.16745,-1.75118 1.70448,-2.4283 0.53703,-0.67713 0.56038,-2.00802 0.56038,-2.00802 z"
       id="path8" />
    <path
       style="fill:#0381bc;fill-opacity:1;stroke:none;stroke-width:2;stroke-linecap:round;stroke-linejoin:round;stroke-opacity:1;paint-order:markers stroke fill"
       d="m 156.28627,96.420013 c 0,0 -0.56135,0.924576 -0.0991,2.080294 0.46229,1.155719 1.1227,0.198123 1.02364,1.551963 -0.0991,1.35384 -0.66041,1.88218 0.29718,1.55197 0.9576,-0.33021 1.61801,-1.22176 2.04728,-1.05666 0.42927,0.1651 0.39625,-0.891554 0.39625,-0.891554 z"
       id="path9" />
    <path
       style="fill:#0381bc;fill-opacity:1;stroke:none;stroke-width:2;stroke-linecap:round;stroke-linejoin:round;stroke-opacity:1;paint-order:markers stroke fill"
       d="m 179.03743,71.225332 c 0,0 -2.83976,-0.214635 -2.5756,0.660411 0.26417,0.875043 0.0495,1.766599 0.89156,1.485924 0.84202,-0.280676 0.72645,-0.792493 1.08967,-0.594371 0.36323,0.198125 -0.19812,1.601497 0.16511,2.014255 0.36322,0.412757 1.17223,-2.559093 1.17223,-2.559093 z"
       id="path10" />
    <path
       style="fill:#ff0006;fill-opacity:1;stroke:none;stroke-width:2;stroke-linecap:round;stroke-linejoin:round;stroke-opacity:1;paint-order:markers stroke fill"
       d="m 193.50044,71.85272 c 0,0 -3.43414,2.179357 -3.69831,5.679535 -0.26416,3.500179 0.26417,2.575605 -2.31143,5.151208 -2.57561,2.575602 0.85853,3.302055 0.85853,3.302055 l 7.26452,-12.415729 z"
       id="path11" />
    <path
       style="fill:#ff0006;fill-opacity:1;stroke:none;stroke-width:2;stroke-linecap:round;stroke-linejoin:round;stroke-opacity:1;paint-order:markers stroke fill"
       d="m 163.28663,103.65151 c 0,0 -1.48593,0.99062 -0.56135,2.50956 0.92458,1.51895 2.08029,1.78312 1.71707,3.69831 -0.36323,1.91519 0.52833,1.2878 -1.08968,2.7407 -1.61801,1.45291 -2.80675,3.10394 -2.80675,3.10394 l 2.54259,0.23114 4.39173,-4.12757 0.13208,-4.45777 z"
       id="path12" />
    <path
       style="fill:#ff0006;fill-opacity:1;stroke:none;stroke-width:2;stroke-linecap:round;stroke-linejoin:round;stroke-opacity:1;paint-order:markers stroke fill"
       d="m 150.57806,132.64599 c 0,0 -0.63042,-0.28019 -1.42429,0.60708 -0.79387,0.88726 -0.14009,1.004 -1.00401,1.91462 -0.86391,0.91061 -1.84457,1.21415 -1.86792,1.96132 -0.0234,0.74717 0.14009,1.1908 0.14009,1.1908 0,0 0.30354,-1.35425 1.00401,-1.16745 0.70047,0.18679 1.16746,0.51368 1.72783,0.0234 0.56038,-0.49033 -0.0467,-1.05071 0.86392,-1.58774 0.91061,-0.53703 1.02736,-1.2375 1.02736,-1.2375 z"
       id="path13" />
    <path
       style="fill:#f9ffc9;fill-opacity:1;stroke:#000000;stroke-width:0.49999997;stroke-linecap:square;stroke-linejoin:round;stroke-dasharray:none;stroke-opacity:1;paint-order:markers stroke fill"
       d="m 16.786478,69.329177 c 0,0 9.553615,13.293962 19.259524,14.771424 0,0 0.658585,5.603989 -4.809103,12.640839 0,0 -20.233001,-2.472392 -21.7695593,-17.163037 0,0 3.8896853,-0.755977 7.3191383,-10.249226 z"
       id="path14" />
    <path
       style="fill:#f9ffc9;fill-opacity:1;stroke:#000000;stroke-width:0.499999;stroke-linecap:square;stroke-linejoin:round;stroke-dasharray:none;stroke-opacity:1;paint-order:markers stroke fill"
       d="m 6.2575471,94.610377 c 0,0 16.3443399,-9.806604 27.4584889,2.334905 0,0 -4.576413,7.004718 -4.763206,9.339628 0,0 -14.476415,-6.16416 -17.651887,0.0934 0,0 0.74717,-6.817933 -5.0433959,-11.767933 z"
       id="path15" />
    <path
       style="fill:#f9ffc9;fill-opacity:1;stroke:#000000;stroke-width:0.499999;stroke-linecap:square;stroke-linejoin:round;stroke-dasharray:none;stroke-opacity:1;paint-order:markers stroke fill"
       d="m 55.664151,85.270755 c -0.74717,7.565094 8.125472,18.959435 8.125472,18.959435 -7.004717,1.02736 -13.822643,8.59245 -13.822643,8.59245 -5.603772,-4.29623 -9.339622,-26.057545 -9.339622,-26.057545 0,0 3.549057,1.494339 15.036793,-1.49434 z"
       id="path16" />
  </g>
</svg>
